<?xml version="1.0" encoding="UTF-8"?>
<!DOCTYPE svg  PUBLIC '-//W3C//DTD SVG 1.1//EN'  'http://www.w3.org/Graphics/SVG/1.1/DTD/svg11.dtd'>
<svg clip-rule="evenodd" fill-rule="evenodd" stroke-linecap="round" stroke-linejoin="round" stroke-miterlimit="1.5" version="1.1" viewBox="0 0 2048 903" xml:space="preserve" xmlns="http://www.w3.org/2000/svg">
    <g transform="matrix(1.9549 0 0 1.9549 -979.59 -1048.2)">
        <path d="m754.95 537h673.05l-133.81 460.48h-672.05l132.81-460.48z" fill="#863024" stroke="#000" stroke-width=".51px"/>
    </g>
    <g transform="matrix(2,0,0,2,0,-316.5)">
        <g transform="matrix(3.9098 0 0 3.9098 -1499.2 483.22)">
            <path d="m431.26-50.112c0.528 0 0.96 0.168 1.296 0.504 0.336 0.288 0.504 0.72 0.504 1.296v46.584c0 0.528-0.168 0.936-0.504 1.224-0.336 0.336-0.768 0.504-1.296 0.504h-9.144c-0.48-0-0.912-0.168-1.296-0.504-0.336-0.384-0.504-0.792-0.504-1.224v-24.624c0-0.24-0.12-0.36-0.36-0.36-0.144 0-0.264 0.048-0.36 0.144l-6.984 12.888c-0.624 1.104-1.464 1.656-2.52 1.656h-3.888c-1.008 0-1.848-0.552-2.52-1.656l-6.912-12.816c-0.096-0.144-0.216-0.216-0.36-0.216-0.24 0-0.36 0.12-0.36 0.36v24.624c0 0.48-0.192 0.888-0.576 1.224-0.336 0.336-0.768 0.504-1.296 0.504h-9.072c-0.528-0-0.96-0.168-1.296-0.504-0.336-0.288-0.504-0.696-0.504-1.224v-42.408c0-1.008 0.216-1.896 0.648-2.664s0.96-1.392 1.584-1.872 1.272-0.84 1.944-1.08 1.248-0.36 1.728-0.36h4.032c1.152 0 2.016 0.504 2.592 1.512l11.952 21.528c0.048 0.144 0.168 0.216 0.36 0.216 0.144 0 0.264-0.072 0.36-0.216l12.024-21.528c0.576-1.008 1.44-1.512 2.592-1.512h8.136z" fill="#dbb151" fill-rule="nonzero"/>
        </g>
        <g transform="matrix(3.9098 0 0 3.9098 -1499.2 483.22)">
            <path d="m442.86-1.944v-42.12c0-1.824 0.624-3.312 1.872-4.464 1.248-1.2 2.712-1.8 4.392-1.8h29.376c0.528 0 0.96 0.192 1.296 0.576 0.384 0.336 0.576 0.768 0.576 1.296v7.128c0 0.528-0.168 0.936-0.504 1.224-0.336 0.336-0.792 0.504-1.368 0.504h-26.568c1.152 0 2.088 0.408 2.808 1.224 0.768 0.816 1.152 1.704 1.152 2.664v3.024c0 0.528 0.168 1.032 0.504 1.512 0.384 0.48 0.936 0.72 1.656 0.72h15.696c0.528 0 0.96 0.192 1.296 0.576 0.384 0.336 0.576 0.768 0.576 1.296v6.48c0 0.528-0.192 0.984-0.576 1.368-0.336 0.336-0.768 0.504-1.296 0.504h-21.816c1.104 0 2.04 0.384 2.808 1.152s1.152 1.632 1.152 2.592v3.384c0 0.528 0.192 1.032 0.576 1.512s0.912 0.72 1.584 0.72h21.024c1.248 0 1.872 0.624 1.872 1.872v7.056c0 0.576-0.192 1.032-0.576 1.368-0.336 0.288-0.768 0.432-1.296 0.432h-34.416c-0.48 0-0.912-0.168-1.296-0.504-0.336-0.384-0.504-0.816-0.504-1.296z" fill="#d6a14f" fill-rule="nonzero"/>
        </g>
        <g transform="matrix(3.9098 0 0 3.9098 -1499.2 483.22)">
            <path d="m537.29-50.112c0.528 0 0.96 0.168 1.296 0.504 0.336 0.288 0.504 0.72 0.504 1.296v46.584c0 0.528-0.168 0.936-0.504 1.224-0.336 0.336-0.768 0.504-1.296 0.504h-9.144c-0.48-0-0.912-0.168-1.296-0.504-0.336-0.384-0.504-0.792-0.504-1.224v-24.624c0-0.24-0.12-0.36-0.36-0.36-0.144 0-0.264 0.048-0.36 0.144l-6.984 12.888c-0.624 1.104-1.464 1.656-2.52 1.656h-3.888c-1.008 0-1.848-0.552-2.52-1.656l-6.912-12.816c-0.096-0.144-0.216-0.216-0.36-0.216-0.24 0-0.36 0.12-0.36 0.36v24.624c0 0.48-0.192 0.888-0.576 1.224-0.336 0.336-0.768 0.504-1.296 0.504h-9.072c-0.528-0-0.96-0.168-1.296-0.504-0.336-0.288-0.504-0.696-0.504-1.224v-42.408c0-1.008 0.216-1.896 0.648-2.664s0.96-1.392 1.584-1.872 1.272-0.84 1.944-1.08 1.248-0.36 1.728-0.36h4.032c1.152 0 2.016 0.504 2.592 1.512l11.952 21.528c0.048 0.144 0.168 0.216 0.36 0.216 0.144 0 0.264-0.072 0.36-0.216l12.024-21.528c0.576-1.008 1.44-1.512 2.592-1.512h8.136z" fill="#d1924d" fill-rule="nonzero"/>
        </g>
        <g transform="matrix(3.9098 0 0 3.9098 -1499.2 483.22)">
            <path d="m590.22-0.144h-10.152c-1.344 0-2.304-0.624-2.88-1.872l-7.344-14.4c-0.432-0.768-1.08-1.152-1.944-1.152h-9.432c1.2 0 2.136 0.432 2.808 1.296 0.72 0.816 1.08 1.656 1.08 2.52v11.88c0 0.528-0.168 0.936-0.504 1.224-0.336 0.336-0.768 0.504-1.296 0.504h-9.864c-0.48 0-0.912-0.168-1.296-0.504-0.336-0.384-0.504-0.792-0.504-1.224v-42.192c0-1.776 0.624-3.24 1.872-4.392 1.248-1.2 2.712-1.8 4.392-1.8h15.264c2.688 0 5.232 0.288 7.632 0.864 2.448 0.576 4.584 1.512 6.408 2.808 1.872 1.296 3.36 3 4.464 5.112 1.104 2.064 1.656 4.608 1.656 7.632 0 2.88-0.648 5.472-1.944 7.776s-3.216 4.176-5.76 5.616c-0.384 0.24-0.6 0.528-0.648 0.864 0 0.336 0.072 0.6 0.216 0.792l9.072 16.416c0.144 0.288 0.216 0.552 0.216 0.792 0 0.384-0.168 0.72-0.504 1.008-0.288 0.288-0.624 0.432-1.008 0.432zm-13.536-33.768c0-1.968-0.6-3.456-1.8-4.464-1.152-1.056-2.664-1.584-4.536-1.584h-12.384c1.2 0 2.16 0.408 2.88 1.224s1.08 1.68 1.08 2.592v5.832c0 0.576 0.192 1.08 0.576 1.512 0.432 0.432 0.96 0.648 1.584 0.648h6.264c1.872 0 3.384-0.456 4.536-1.368 1.2-0.96 1.8-2.424 1.8-4.392z" fill="#c87349" fill-rule="nonzero"/>
        </g>
        <g transform="matrix(3.9098 0 0 3.9098 -1499.2 483.22)">
            <path d="m594.99-0.432c-0.288-0.384-0.432-0.744-0.432-1.08s0.024-0.552 0.072-0.648l16.704-45.936c0.528-1.392 1.488-2.088 2.88-2.088h11.16c1.392 0 2.352 0.696 2.88 2.088l16.704 45.936c0.048 0.096 0.072 0.312 0.072 0.648 0 0.384-0.168 0.744-0.504 1.08-0.288 0.288-0.624 0.432-1.008 0.432h-9.288c-1.2 0-2.016-0.528-2.448-1.584l-3.744-10.152c-1.728 0.672-3.48 1.224-5.256 1.656s-3.504 0.768-5.184 1.008c-1.632 0.192-3.168 0.336-4.608 0.432-1.44 0.048-2.688 0.072-3.744 0.072h-1.728c-0.432 0-0.768-0.024-1.008-0.072 0.864 0.144 1.56 0.624 2.088 1.44 0.576 0.816 0.648 1.776 0.216 2.88l-1.008 2.736c-0.432 1.056-1.248 1.584-2.448 1.584h-9.288c-0.336 0-0.696-0.144-1.08-0.432zm18.288-18.432c1.344-0.096 2.736-0.264 4.176-0.504 1.248-0.192 2.544-0.456 3.888-0.792 1.392-0.384 2.712-0.912 3.96-1.584l-5.544-15.84-6.48 18.72z" fill="#bf5445" fill-rule="nonzero"/>
        </g>
    </g>
</svg>
